PathFileType	4	(X/Y/Z)	 control3min.trc
DataRate	CameraRate	NumFrames	NumMarkers	Units	OrigDataRate	OrigDataStartFrame	OrigNumFrames
200	200	11	35	m	200	876	1000
Frame#	Time	C7			LSH			RSH			MAN			RASI			LASI			HIPR			HIPL			RPSI			LPSI			COX			RTHI1			RTHI2			RTHI3			RTHI4			RSHA1			RSHA2			RSHA3			RSHA4			RHEEL			RMET5			RMET1			RTOE			LTHI1			LTHI2			LTHI3			LTHI4			LSHA1			LSHA2			LSHA3			LSHA4			LHEEL			LMET5			LMET1			LTOE			
		X1	Y1	Z1	X2	Y2	Z2	X3	Y3	Z3	X4	Y4	Z4	X5	Y5	Z5	X6	Y6	Z6	X7	Y7	Z7	X8	Y8	Z8	X9	Y9	Z9	X10	Y10	Z10	X11	Y11	Z11	X12	Y12	Z12	X13	Y13	Z13	X14	Y14	Z14	X15	Y15	Z15	X16	Y16	Z16	X17	Y17	Z17	X18	Y18	Z18	X19	Y19	Z19	X20	Y20	Z20	X21	Y21	Z21	X22	Y22	Z22	X23	Y23	Z23	X24	Y24	Z24	X25	Y25	Z25	X26	Y26	Z26	X27	Y27	Z27	X28	Y28	Z28	X29	Y29	Z29	X30	Y30	Z30	X31	Y31	Z31	X32	Y32	Z32	X33	Y33	Z33	X34	Y34	Z34	X35	Y35	Z35	
876	4.3800	-0.272074	1.551036	-0.512440	-0.233648	1.524222	-0.742780	-0.203736	1.520004	-0.309891	-0.121790	1.483776	-0.526045	-0.147718	1.033058	-0.407516	-0.135834	1.028784	-0.625878	-0.204715	1.083190	-0.359303	-0.200612	1.080617	-0.687731	-0.328674	1.072971	-0.468796	-0.329652	1.068240	-0.580730	-0.336825	1.081352	-0.522233	-0.210101	0.788967	-0.318127	-0.184120	0.738881	-0.298691	-0.126142	0.768046	-0.292851	-0.145572	0.823081	-0.312795	-0.252639	0.368682	-0.292775	-0.261107	0.328880	-0.307402	-0.202044	0.319864	-0.295997	-0.197094	0.358304	-0.286424	-0.393578	0.065923	-0.398463	-0.228052	0.025825	-0.290505	-0.171290	0.042315	-0.372667	-0.141416	0.030886	-0.366168	-0.163985	0.785723	-0.738674	-0.140021	0.728474	-0.747845	-0.079515	0.746290	-0.735143	-0.094616	0.804022	-0.724715	-0.204629	0.350723	-0.749527	-0.228017	0.317799	-0.747002	-0.174275	0.288913	-0.731199	-0.156805	0.329375	-0.736533	-0.397878	0.062652	-0.671525	-0.223714	0.026940	-0.758619	-0.167621	0.037889	-0.673912	-0.138704	0.028622	-0.680759	
877	4.3850	-0.272508	1.554780	-0.512738	-0.233792	1.528196	-0.742883	-0.204460	1.524256	-0.310051	-0.122055	1.488135	-0.526066	-0.146099	1.037007	-0.407610	-0.134195	1.032830	-0.625700	-0.203115	1.086858	-0.359406	-0.198904	1.084887	-0.687570	-0.327078	1.076558	-0.468656	-0.328047	1.071876	-0.580661	-0.335228	1.084877	-0.522099	-0.210311	0.792493	-0.318525	-0.184843	0.742108	-0.299149	-0.126559	0.770679	-0.293138	-0.145440	0.825928	-0.313049	-0.255081	0.370014	-0.293341	-0.263229	0.330095	-0.307918	-0.204102	0.321572	-0.296339	-0.199440	0.360043	-0.286824	-0.393442	0.066375	-0.398432	-0.228020	0.025814	-0.290535	-0.171277	0.042308	-0.372677	-0.141434	0.030881	-0.366184	-0.164376	0.788555	-0.738271	-0.141030	0.731071	-0.747335	-0.080280	0.748326	-0.734962	-0.094788	0.806211	-0.724629	-0.207090	0.352277	-0.749346	-0.230209	0.319148	-0.746817	-0.176172	0.290670	-0.731253	-0.159063	0.331288	-0.736547	-0.397800	0.063208	-0.671855	-0.223613	0.026922	-0.758599	-0.167615	0.037857	-0.673863	-0.138716	0.028603	-0.680650	
878	4.3900	-0.272989	1.558906	-0.513025	-0.233989	1.532617	-0.742956	-0.205191	1.528957	-0.310209	-0.122347	1.492954	-0.526103	-0.144348	1.041390	-0.407690	-0.132496	1.037296	-0.625551	-0.201284	1.091139	-0.359554	-0.197183	1.089635	-0.687433	-0.325349	1.080576	-0.468481	-0.326341	1.075904	-0.580557	-0.333425	1.088789	-0.521837	-0.210606	0.796416	-0.318946	-0.185700	0.745697	-0.299684	-0.127103	0.773615	-0.293553	-0.145358	0.829093	-0.313346	-0.257772	0.371587	-0.294041	-0.265584	0.331560	-0.308554	-0.206393	0.323571	-0.296742	-0.202035	0.362076	-0.287319	-0.393320	0.066930	-0.398383	-0.227992	0.025815	-0.290586	-0.171268	0.042296	-0.372699	-0.141466	0.030875	-0.366205	-0.164729	0.791846	-0.737813	-0.141964	0.734181	-0.746741	-0.081008	0.750880	-0.734567	-0.094942	0.808910	-0.724355	-0.209473	0.354298	-0.749184	-0.232342	0.320990	-0.746712	-0.178070	0.292867	-0.731303	-0.161278	0.333628	-0.736498	-0.397730	0.063951	-0.672401	-0.223484	0.026904	-0.758614	-0.167648	0.037816	-0.673811	-0.138768	0.028574	-0.680513	
879	4.3950	-0.273515	1.563374	-0.513305	-0.234229	1.537449	-0.743002	-0.205907	1.534068	-0.310372	-0.122669	1.498178	-0.526158	-0.142485	1.046188	-0.407737	-0.130748	1.042140	-0.625430	-0.199241	1.096007	-0.359754	-0.195444	1.094788	-0.687311	-0.323516	1.084986	-0.468262	-0.324548	1.080302	-0.580431	-0.331453	1.093064	-0.521495	-0.210973	0.800721	-0.319383	-0.186675	0.749624	-0.300285	-0.127733	0.776851	-0.294038	-0.145324	0.832567	-0.313691	-0.260710	0.373424	-0.294823	-0.268161	0.333248	-0.309352	-0.208908	0.325841	-0.297247	-0.204883	0.364393	-0.287893	-0.393210	0.067620	-0.398320	-0.227965	0.025828	-0.290667	-0.171264	0.042278	-0.372731	-0.141514	0.030867	-0.366231	-0.165037	0.795576	-0.737312	-0.142820	0.737765	-0.746075	-0.081692	0.753925	-0.733987	-0.095080	0.812072	-0.723906	-0.211774	0.356708	-0.749035	-0.234416	0.323232	-0.746668	-0.179960	0.295435	-0.731319	-0.163444	0.336324	-0.736373	-0.397662	0.064899	-0.673138	-0.223329	0.026879	-0.758648	-0.167717	0.037766	-0.673755	-0.138865	0.028533	-0.680351	
880	4.4000	-0.274073	1.568156	-0.513581	-0.234542	1.542670	-0.743051	-0.206589	1.539553	-0.310551	-0.123025	1.503756	-0.526238	-0.140535	1.051380	-0.407746	-0.128968	1.047312	-0.625327	-0.197048	1.101414	-0.359976	-0.193666	1.100271	-0.687192	-0.321600	1.089752	-0.468006	-0.322689	1.085055	-0.580295	-0.329363	1.097673	-0.521123	-0.211389	0.805367	-0.319853	-0.187738	0.753874	-0.300949	-0.128414	0.780391	-0.294598	-0.145330	0.836345	-0.314089	-0.263906	0.375479	-0.295753	-0.270946	0.335153	-0.310266	-0.211643	0.328371	-0.297856	-0.207980	0.366987	-0.288570	-0.393111	0.068487	-0.398214	-0.227950	0.025846	-0.290774	-0.171264	0.042257	-0.372773	-0.141577	0.030859	-0.366261	-0.165295	0.799713	-0.736781	-0.143614	0.741772	-0.745371	-0.082336	0.757388	-0.733248	-0.095188	0.815651	-0.723310	-0.214023	0.359398	-0.748897	-0.236447	0.325765	-0.746666	-0.181843	0.298296	-0.731281	-0.165585	0.339290	-0.736173	-0.397582	0.066081	-0.674017	-0.223149	0.026846	-0.758692	-0.167819	0.037707	-0.673697	-0.139002	0.028482	-0.680166	
881	4.4050	-0.274657	1.573201	-0.513855	-0.234917	1.548233	-0.743106	-0.207226	1.545377	-0.310751	-0.123416	1.509637	-0.526344	-0.138523	1.056930	-0.407720	-0.127171	1.052765	-0.625226	-0.194697	1.107246	-0.360245	-0.191843	1.106020	-0.687053	-0.319624	1.094842	-0.467720	-0.320788	1.090125	-0.580147	-0.327159	1.102575	-0.520673	-0.211832	0.810328	-0.320348	-0.188848	0.758439	-0.301652	-0.129144	0.784198	-0.295233	-0.145357	0.840415	-0.314542	-0.267317	0.377743	-0.296808	-0.273926	0.337283	-0.311256	-0.214572	0.331161	-0.298551	-0.211308	0.369854	-0.289344	-0.392987	0.069568	-0.398093	-0.227958	0.025864	-0.290898	-0.171271	0.042232	-0.372821	-0.141659	0.030848	-0.366292	-0.165501	0.804220	-0.736234	-0.144362	0.746135	-0.744641	-0.082960	0.761200	-0.732384	-0.095273	0.819575	-0.722591	-0.216270	0.362289	-0.748771	-0.238458	0.328486	-0.746686	-0.183718	0.301386	-0.731185	-0.167726	0.342488	-0.735911	-0.397460	0.067554	-0.675024	-0.222946	0.026809	-0.758736	-0.167941	0.037640	-0.673641	-0.139168	0.028427	-0.679969	
882	4.4100	-0.275258	1.578483	-0.514129	-0.235343	1.554092	-0.743167	-0.207814	1.551486	-0.310973	-0.123837	1.515778	-0.526477	-0.136464	1.062786	-0.407670	-0.125372	1.058459	-0.625113	-0.192369	1.113453	-0.360451	-0.189989	1.111975	-0.686871	-0.317607	1.100212	-0.467397	-0.318866	1.095502	-0.579995	-0.324863	1.107747	-0.520154	-0.212275	0.815574	-0.320863	-0.189980	0.763308	-0.302369	-0.129896	0.788278	-0.295941	-0.145393	0.844754	-0.315052	-0.270920	0.380220	-0.297949	-0.277022	0.339673	-0.312239	-0.217643	0.334212	-0.299279	-0.214880	0.372996	-0.290295	-0.392824	0.070902	-0.397939	-0.227962	0.025902	-0.291061	-0.171283	0.042203	-0.372872	-0.141759	0.030836	-0.366322	-0.165652	0.809062	-0.735684	-0.145078	0.750810	-0.743906	-0.083574	0.765285	-0.731422	-0.095334	0.823774	-0.721765	-0.218554	0.365339	-0.748663	-0.240465	0.331337	-0.746717	-0.185577	0.304678	-0.731041	-0.169900	0.345899	-0.735619	-0.397270	0.069349	-0.676104	-0.222721	0.026773	-0.758769	-0.168072	0.037569	-0.673590	-0.139358	0.028375	-0.679766	
883	4.4150	-0.275861	1.583964	-0.514406	-0.235812	1.560207	-0.743233	-0.208378	1.557856	-0.311225	-0.124282	1.522140	-0.526636	-0.134381	1.068893	-0.407609	-0.123579	1.064355	-0.624972	-0.190059	1.119942	-0.360610	-0.188101	1.118091	-0.686639	-0.315580	1.105835	-0.467031	-0.316947	1.101156	-0.579841	-0.322671	1.113169	-0.519700	-0.212707	0.821091	-0.321389	-0.191112	0.768452	-0.303094	-0.130643	0.792610	-0.296685	-0.145429	0.849347	-0.315608	-0.274647	0.382921	-0.299178	-0.280219	0.342297	-0.313273	-0.220834	0.337536	-0.300069	-0.218583	0.376382	-0.291301	-0.392620	0.072540	-0.397723	-0.227966	0.025955	-0.291265	-0.171304	0.042171	-0.372922	-0.141877	0.030823	-0.366354	-0.165745	0.814205	-0.735144	-0.145771	0.755774	-0.743181	-0.084175	0.769605	-0.730391	-0.095346	0.828209	-0.720861	-0.220910	0.368534	-0.748580	-0.242497	0.334299	-0.746754	-0.187422	0.308180	-0.730877	-0.172129	0.349537	-0.735338	-0.396975	0.071490	-0.677234	-0.222480	0.026743	-0.758780	-0.168199	0.037502	-0.673553	-0.139560	0.028327	-0.679568	
884	4.4200	-0.276458	1.589612	-0.514686	-0.236319	1.566538	-0.743303	-0.208926	1.564477	-0.311510	-0.124748	1.528675	-0.526822	-0.132294	1.075198	-0.407550	-0.121801	1.070427	-0.624791	-0.187827	1.126627	-0.360685	-0.186180	1.124340	-0.686359	-0.313556	1.111690	-0.466630	-0.315050	1.107062	-0.579686	-0.320586	1.118807	-0.519278	-0.213134	0.826837	-0.321920	-0.192235	0.773846	-0.303817	-0.131398	0.797158	-0.297472	-0.145467	0.854163	-0.316201	-0.278462	0.385854	-0.300461	-0.283480	0.345217	-0.314271	-0.224089	0.341153	-0.300851	-0.222355	0.380026	-0.292348	-0.392350	0.074515	-0.397426	-0.227976	0.026016	-0.291503	-0.171329	0.042141	-0.372967	-0.142012	0.030814	-0.366386	-0.165779	0.819619	-0.734627	-0.146435	0.761001	-0.742491	-0.084767	0.774125	-0.729313	-0.095308	0.832865	-0.719904	-0.223344	0.371907	-0.748529	-0.244554	0.337419	-0.746803	-0.189253	0.311924	-0.730738	-0.174415	0.353430	-0.735101	-0.396553	0.074007	-0.678394	-0.222232	0.026725	-0.758761	-0.168316	0.037441	-0.673538	-0.139763	0.028290	-0.679383	
885	4.4250	-0.277042	1.595395	-0.514968	-0.236836	1.573031	-0.743363	-0.209462	1.571299	-0.311824	-0.125226	1.535330	-0.527032	-0.130221	1.081649	-0.407503	-0.120042	1.076658	-0.624566	-0.185680	1.133423	-0.360684	-0.184239	1.130709	-0.686040	-0.311556	1.117751	-0.466200	-0.313189	1.113187	-0.579525	-0.318617	1.124653	-0.518886	-0.213563	0.832782	-0.322447	-0.193356	0.779452	-0.304535	-0.132201	0.801902	-0.298299	-0.145515	0.859169	-0.316817	-0.282283	0.389037	-0.301766	-0.286736	0.348415	-0.315244	-0.227363	0.345081	-0.301605	-0.226128	0.383931	-0.293382	-0.391986	0.076846	-0.397063	-0.227959	0.026092	-0.291800	-0.171360	0.042115	-0.372998	-0.142159	0.030785	-0.366429	-0.165753	0.825275	-0.734144	-0.147055	0.766468	-0.741837	-0.085335	0.778849	-0.728216	-0.095219	0.837722	-0.718919	-0.225833	0.375531	-0.748516	-0.246629	0.340778	-0.746869	-0.191073	0.315953	-0.730662	-0.176730	0.357635	-0.734948	-0.395974	0.076897	-0.679551	-0.221978	0.026729	-0.758705	-0.168413	0.037388	-0.673554	-0.139961	0.028265	-0.679216	
886	4.4300	-0.277606	1.601289	-0.515251	-0.237364	1.579654	-0.743410	-0.209995	1.578268	-0.312168	-0.125704	1.542075	-0.527266	-0.128179	1.088187	-0.407467	-0.118308	1.083027	-0.624295	-0.183640	1.140290	-0.360598	-0.182291	1.137187	-0.685710	-0.309596	1.123991	-0.465742	-0.311373	1.119508	-0.579361	-0.316778	1.130691	-0.518532	-0.213998	0.838894	-0.322961	-0.194489	0.785234	-0.305254	-0.133023	0.806834	-0.299125	-0.145595	0.864331	-0.317437	-0.286053	0.392499	-0.303028	-0.289919	0.351850	-0.316223	-0.230605	0.349292	-0.302292	-0.229854	0.388102	-0.294365	-0.391494	0.079537	-0.396621	-0.227924	0.026199	-0.292128	-0.171374	0.042069	-0.373035	-0.142315	0.030739	-0.366480	-0.165678	0.831144	-0.733707	-0.147621	0.772161	-0.741237	-0.085871	0.783772	-0.727118	-0.095083	0.842777	-0.717933	-0.228334	0.379471	-0.748538	-0.248700	0.344460	-0.746961	-0.192874	0.320309	-0.730680	-0.179043	0.362164	-0.734895	-0.395224	0.080147	-0.680680	-0.221720	0.026761	-0.758607	-0.168484	0.037345	-0.673605	-0.140147	0.028251	-0.679073	
